<svg width="169" height="181" viewBox="0 0 169 181" fill="none" xmlns="http://www.w3.org/2000/svg">
<g id="spiral">
<g id="Vector 42" filter="url(#filter0_f_106_584)">
<path d="M82.1752 37L60.6752 35L32.6752 44L45.6752 28.5L62.6752 24.5H86.6752L121.175 36L129.675 48L144.675 79V97.5L140.675 118.5L135.675 135L129.675 138L133.675 111.5L131.675 93.5L126.175 75L120.675 59.5L82.1752 37Z" fill="url(#paint0_linear_106_584)"/>
</g>
<g id="Vector 41" filter="url(#filter1_f_106_584)">
<path d="M72.0161 168.398L68.0393 165.841C67.1998 165.301 67.582 164 68.58 164H69.4826C69.6099 164 69.7359 164.024 69.854 164.072L76.9618 166.915C77.1023 166.971 77.2536 166.994 77.4045 166.984L97.7198 165.533C98.009 165.512 98.293 165.618 98.4981 165.823L101.713 169.038C101.994 169.318 102.414 169.406 102.784 169.262L124.916 160.601C125.086 160.535 125.234 160.424 125.345 160.28L130.117 154.076C130.156 154.026 130.19 153.971 130.218 153.914L136.07 142.211C136.139 142.072 136.175 141.919 136.175 141.764V139.11C136.175 139.037 136.183 138.964 136.199 138.893L138.066 130.492C138.135 130.183 138.346 129.924 138.636 129.795L146.768 126.181C147.027 126.066 147.225 125.846 147.313 125.576L151.724 112.003C152.076 110.92 153.675 111.174 153.675 112.312V117.35C153.675 117.449 153.66 117.548 153.631 117.644L145.698 143.425C145.683 143.475 145.672 143.526 145.664 143.578L144.298 153.141C144.228 153.634 143.806 154 143.308 154H139.175C138.623 154 138.175 153.552 138.175 153V152.035C138.175 151.701 138.342 151.389 138.621 151.203L142.345 148.72C142.557 148.579 142.707 148.362 142.765 148.113L143.162 146.391C143.403 145.348 142.059 144.707 141.4 145.55L122.814 169.322C122.723 169.439 122.606 169.534 122.474 169.601L113.803 173.936C113.718 173.978 113.628 174.009 113.535 174.026L102.675 176L94.0658 178.392C93.8153 178.461 93.5476 178.43 93.3193 178.306L77.3088 169.573C77.2203 169.525 77.1249 169.49 77.0261 169.47L72.3607 168.537C72.2382 168.513 72.1213 168.465 72.0161 168.398Z" fill="url(#paint1_linear_106_584)"/>
</g>
<g id="Vector 43" filter="url(#filter2_f_106_584)">
<path d="M114.675 72.5L88.1752 45L105.675 50L120.175 59L122.675 68.5L114.675 72.5Z" fill="#73B64B" style="mix-blend-mode:difference"/>
</g>
<g id="Vector 44" filter="url(#filter3_f_106_584)">
<path d="M130.175 67L129.682 81.7914C129.678 81.9301 129.687 82.0689 129.712 82.2056L134.175 107.5L135.091 111.621C135.147 111.871 135.154 112.13 135.111 112.383L133.675 121L128.175 138.5L126.761 146.986C126.705 147.323 126.563 147.64 126.35 147.907L122.97 152.131C122.776 152.374 122.528 152.568 122.247 152.698L109.675 158.5M113.175 158.5L126.343 153.327C126.873 153.119 127.288 152.695 127.487 152.162L133.675 135.5L139.533 121.343C139.627 121.116 139.678 120.874 139.685 120.629L140.172 101.146C140.174 101.049 140.169 100.952 140.158 100.855L138.175 84.5L136.724 67.5644C136.692 67.1954 136.559 66.8424 136.338 66.5448L126.846 53.7309C126.733 53.5778 126.598 53.4416 126.446 53.3266L108.317 39.607C108.223 39.5358 108.122 39.4731 108.017 39.4195L80.6752 25.5M131.675 87L136.542 99.6534C136.63 99.8825 136.675 100.126 136.675 100.371V107.5V110L135.192 122.357C135.181 122.452 135.163 122.546 135.138 122.639L131.675 135.5L129.675 140.5L126.917 150.154C126.763 150.693 126.39 151.143 125.888 151.393L115.675 156.5M141.675 112L145.019 101.492C145.121 101.169 145.14 100.826 145.074 100.494L142.75 88.8744C142.701 88.627 142.698 88.3725 142.744 88.1244L143.556 83.6559C143.633 83.2302 143.571 82.7908 143.377 82.4037L142.328 80.3064C142.227 80.1036 142.161 79.885 142.133 79.6601L141.212 72.2915C141.188 72.0982 141.135 71.9095 141.056 71.7313L131.859 50.915C131.738 50.6418 131.558 50.3991 131.331 50.2048L124.795 44.6024C124.715 44.5342 124.63 44.4724 124.541 44.4176L118.33 40.5952C118.227 40.5319 118.13 40.4593 118.04 40.3785L108.175 31.5M122.675 56L132.125 64.9772C132.479 65.314 132.698 65.7691 132.74 66.2564L134.175 83M116.675 161.5L129.358 155.393C129.878 155.143 130.264 154.682 130.418 154.127L135.087 137.317C135.145 137.107 135.238 136.908 135.36 136.728L143.543 124.695C143.631 124.565 143.703 124.426 143.759 124.28L149.175 110M126.675 73.5V64.7241C126.675 64.2562 126.511 63.8032 126.212 63.4437L121.675 58L114.566 49.9423C114.311 49.6536 113.978 49.4445 113.607 49.3403L98.3712 45.0551C98.2409 45.0185 98.1072 44.9951 97.9722 44.9855L91.8602 44.5489C91.4163 44.5172 90.9956 44.3383 90.6648 44.0406L81.1752 35.5M69.1752 29L86.8604 33.4213C87.0689 33.4734 87.2677 33.5588 87.449 33.6742L97.9992 40.3879C98.1162 40.4624 98.2407 40.5246 98.3707 40.5733L106.175 43.5M104.675 33L93.1752 25.5L84.5105 18.6594C83.9883 18.2472 83.2953 18.1216 82.6617 18.3243L71.1752 22M77.6752 29L66.84 25.5524C66.7304 25.5175 66.6179 25.4922 66.5039 25.4766L56.188 24.0699C55.8517 24.0241 55.5092 24.0646 55.1929 24.1876L46.6752 27.5M75.1752 29L59.3857 27.5197C59.2458 27.5066 59.1049 27.5083 58.9653 27.5247L50.6752 28.5M77.6752 33.5L64.5071 31.5492C64.2874 31.5166 64.0638 31.5209 63.8455 31.5618L56.1752 33M80.6752 40.5L71.168 36.2217C70.8453 36.0765 70.4898 36.0195 70.1379 36.0566L61.1752 37" stroke="url(#paint2_linear_106_584)" stroke-width="2"/>
</g>
<g id="Vector 47" filter="url(#filter4_f_106_584)">
<path d="M22.6752 137.5L26.6752 141.5L31.6752 149.5L46.6752 162.5L63.6752 165.5M25.6752 144.5L33.1752 155.5L43.6752 162L54.1752 171.5L41.6752 164L31.6752 160L24.6752 148M70.1752 171.5L64.1752 168M54.6752 166L66.1752 174.5M55.6752 160L66.1752 163.5M43.6752 157L50.1752 160.5L55.6752 162M51.6752 166L58.1752 173L64.6752 176M79.1752 172.5L69.6752 169M78.1752 164L67.6752 161M115.675 135.5L122.175 125M110.175 145L117.675 140L122.175 129M116.175 144.5L120.175 140L121.175 136.5M116.175 137L119.175 133" stroke="#60A247"/>
</g>
<g id="Vector 36" filter="url(#filter5_f_106_584)">
<path d="M66.1752 48.5L55.5097 43.7598C53.6862 42.9493 51.6256 42.8499 49.7326 43.4809V43.4809C48.7051 43.8234 47.6187 43.9536 46.5393 43.8637L46.1344 43.8299C43.592 43.6181 41.0651 44.3881 39.073 45.9818L30.0757 53.1797C28.1674 54.7063 26.6342 56.6497 25.5937 58.8608L20.923 68.7859C19.7764 71.2225 19.2633 73.9091 19.4313 76.5968L19.4671 77.1698C19.6044 79.3663 19.287 81.5675 18.5349 83.6358L15.6752 91.5L14.2963 96.671C13.8846 98.215 13.7065 99.8119 13.7679 101.409L14.1151 110.436C14.1551 111.476 14.0935 112.518 13.9311 113.546L12.6752 121.5L11.2914 105.816C11.2141 104.94 11.2091 104.059 11.2766 103.183L12.0718 92.8449C12.1406 91.9499 12.2847 91.0623 12.5024 90.1914L16.6752 73.5" stroke="url(#paint3_radial_106_584)"/>
</g>
<g id="Vector 40" filter="url(#filter6_f_106_584)">
<path d="M72.1752 159C72.1752 159 67.1752 153.5 68.1752 153C69.1752 152.5 82.4186 156.962 90.6752 153C85.1521 151.424 84.3916 150.884 81.6752 148C96.2706 148.159 107.538 149.681 122.675 143V138.5C123.217 132.697 124.017 128.785 125.675 121.5V116.5C125.675 116.5 126.675 113.5 127.675 112.5C128.675 111.5 129.175 114 129.175 114L133.175 102.5V109L129.675 117.5L130.175 121.5L129.175 123V127C129.175 127 130.175 127.5 130.175 129C130.175 130.5 127.675 137.5 127.675 137.5L126.675 144C126.675 144 123.175 151.5 118.175 155C113.175 158.5 92.1752 164.5 86.6752 164C81.1752 163.5 77.1752 161 77.1752 161C77.1752 161 85.6752 170 83.6752 170C81.6752 170 72.1752 163.5 71.6752 162C71.1752 160.5 72.1752 159 72.1752 159Z" fill="url(#paint4_linear_106_584)"/>
</g>
<g id="Vector 39" filter="url(#filter7_f_106_584)">
<path d="M38.1752 56.5L21.6752 76L28.6752 58L38.1752 56.5Z" fill="#4B9539"/>
</g>
<g id="Vector 38" filter="url(#filter8_f_106_584)">
<path d="M8.17523 110.5L3.10988 101.636C2.53844 100.636 2.58997 99.3967 3.24248 98.4476L7.14736 92.7678C7.49117 92.2677 7.67523 91.6751 7.67523 91.0682V89.7426C7.67523 88.947 7.9913 88.1839 8.55391 87.6213L14.6752 81.5" stroke="#C0DE7F"/>
</g>
<g id="Vector 37" filter="url(#filter9_f_106_584)">
<path d="M10.1752 122C8.77377 113.899 8.17523 99 7.17523 101.5C7.26048 98.1798 8.67523 100.5 9.17522 90.5" stroke="#73C442" stroke-width="2"/>
</g>
<path id="Vector 34" d="M32.6752 76.5L23.1752 91L33.6752 80L32.6752 76.5Z" fill="#8BD046"/>
<path id="Vector 31" d="M30.6752 125.5L33.0854 127.566C33.8062 128.184 34.4113 128.925 34.8723 129.755L36.3097 132.342C36.5528 132.78 36.8366 133.194 37.1571 133.578L39.1752 136L44.8398 141.665C45.718 142.543 46.7886 143.204 47.9669 143.597L50.6752 144.5" stroke="#82C161" stroke-width="2"/>
<path id="Vector 32" d="M31.1752 132.5L36.2251 139.386C36.5232 139.793 36.8859 140.147 37.2988 140.436L41.2063 143.172C41.4534 143.345 41.7963 143.258 41.9312 142.988V142.988C42.0619 142.727 42.3896 142.635 42.6366 142.791L51.6752 148.5" stroke="#A2DF6D" stroke-width="2"/>
<path id="Vector 29" d="M26.6752 122C25.0144 92.6466 30.0165 79.2153 51.1752 61.5C51.1752 61.5 35.0502 66 27.1752 87C19.3002 108 26.6752 122 26.6752 122Z" fill="#59B540"/>
<path id="Vector" d="M94.8957 143.587L100.411 144.458C100.585 144.486 100.749 144.555 100.889 144.66C101.61 145.201 101.387 146.336 100.515 146.564L91.1752 149L88.1151 150.224C87.3194 150.542 87.2319 151.634 87.9668 152.075C88.8681 152.616 88.4847 154 87.4336 154H78.9857C78.0985 154 77.8703 152.771 78.6984 152.453C79.4383 152.168 79.3586 151.096 78.5847 150.924L68.2518 148.628C67.8695 148.543 67.5018 148.402 67.1604 148.21L61.7937 145.192C60.3895 144.402 58.8454 143.899 57.3513 143.296C53.2584 141.643 50.4469 138.065 46.1742 131.741C45.8422 131.25 45.4476 130.802 45.013 130.398C41.4239 127.066 39.5042 124.036 37.3318 118.874C36.8898 117.824 37.963 116.795 39.0042 117.257C39.8154 117.618 40.7378 117.061 40.7969 116.175L40.9692 113.591C41.0195 112.835 40.0139 112.532 39.6385 113.189C39.4052 113.598 38.8475 113.672 38.515 113.34L37.3278 112.153C36.9138 111.739 36.7025 111.164 36.7498 110.58L37.7678 98.0245C38.033 94.7541 39.2972 91.6442 41.3892 89.1165L50.1752 78.5L38.4635 91.0195C36.6339 92.9752 35.3246 95.3588 34.6554 97.9519L32.0864 107.907C31.813 108.966 31.6458 110.053 31.6059 111.146C31.3037 119.439 31.7882 126.184 32.9857 135.669C33.6794 141.164 37.258 145.86 42.3251 148.096L51.1752 152L49.7555 144.428C49.7138 144.206 49.8843 144 50.1106 144C50.3742 144 50.5491 143.727 50.4386 143.487L47.6752 137.5C55.7877 145.661 62.6414 147.498 74.6752 151L56.1752 148L68.4319 156.485C68.9049 156.813 69.216 157.326 69.2874 157.897C69.4693 159.353 68.0888 160.512 66.6864 160.08L63.8765 159.216C63.413 159.073 62.9232 159.02 62.439 159.047C51.0768 159.683 45.3694 155.818 35.6752 147.5L41.4306 159.422C42.0066 160.615 41.1373 162 39.8124 162C39.4002 162 38.9983 161.859 38.6837 161.593C34.4586 158.019 33.214 154.898 31.6752 149L27.4397 127.352C27.2637 126.452 27.1642 125.537 27.1484 124.62C27.0164 116.962 27.23 111.852 28.2547 104.046C28.5188 102.033 29.2013 100.097 30.1936 98.3264C35.5744 88.7271 38.6943 81.9366 45.6752 74L35.6752 78.5L37.1483 75.7643C38.4763 73.298 40.4012 71.1708 42.8822 69.8706C49.302 66.5063 54.2783 65.7655 59.4121 67.3829C62.5937 68.3852 65.9802 68.9585 69.1752 68C66.2145 65.8636 63.0334 64.3767 56.1752 61.5C62.7484 59.9121 66.6529 59.672 73.6443 63.4297C74.3223 63.7941 75.0799 64 75.8497 64H78.7379C80.007 64 80.9662 62.8506 80.7392 61.602L80.5791 60.7212C80.3898 59.68 81.3388 58.7909 82.3654 59.0475L83.318 59.2857C83.7534 59.3945 84.1752 59.0652 84.1752 58.6163C84.1752 58.1035 84.715 57.7699 85.1737 57.9992L85.3716 58.0982C85.8042 58.3145 86.3293 58.1149 86.5089 57.6658L86.6188 57.3912C86.8945 56.7019 87.7603 56.4787 88.3349 56.9488L98.1752 65L92.1752 58.5C89.302 55.1479 79.253 53.4722 65.0752 52.1702C64.0449 52.0756 63.2983 51.1388 63.4446 50.1146C63.5755 49.1979 64.3796 48.5293 65.3048 48.5679L74.4156 48.9475C75.1026 48.9761 75.6752 48.4269 75.6752 47.7392C75.6752 46.8965 76.5156 46.3121 77.3056 46.6056L91.0405 51.7071C92.4497 52.2305 93.7527 53.0186 94.8189 54.0784C99.774 59.0042 102.123 63.1132 103.734 70.7294C104.051 72.2281 104.523 73.6957 105.208 75.0659L105.675 76V71C106.946 76.498 107.734 79.3685 109.675 83C109.394 78.7403 108.888 76.327 107.675 72C112.887 79.9626 114.517 85.7759 116.91 95.8781C117.084 96.6104 117.457 97.2819 117.989 97.8141C118.749 98.5734 119.175 99.6033 119.175 100.677V110.775C119.175 113.859 118.284 116.878 116.608 119.467L114.596 122.577C113.984 123.523 113.273 124.402 112.477 125.199L109.406 128.269C107.611 130.064 105.417 131.415 102.992 132.165C95.2767 134.55 90.0398 135.758 81.6752 137C87.0698 139.644 90.1521 140.481 94.9752 137.893C95.4433 137.641 95.8654 137.31 96.2409 136.934C96.8569 136.318 97.597 135.839 98.4116 135.53C104.145 133.361 107.95 131.981 114.389 126.784C116.583 125.013 118.145 122.591 119.037 119.916L121.354 112.963C121.898 111.332 122.175 109.623 122.175 107.904V94C124.443 95.1521 124.787 97.9139 124.675 104.5C126.861 100.184 126.278 95.8265 124.484 87.8583C124.361 87.31 123.658 87.1468 123.307 87.5857C122.917 88.0723 122.133 87.8127 122.111 87.1899L121.675 75L125.175 84L126.175 76L129.069 92.1222C129.469 94.3487 129.392 96.6347 128.843 98.8294L128.398 100.61C128.25 101.201 128.175 101.808 128.175 102.418V104.329C128.175 105.385 127.695 106.384 126.87 107.044C126.109 107.653 125.644 108.556 125.555 109.527C124.859 117.091 122.874 121.618 117.53 128.426C116.993 129.111 116.757 129.992 116.9 130.851C117.072 131.878 116.707 132.922 115.932 133.619L113.692 135.635C112.867 136.377 112.834 137.658 113.618 138.442C114.595 139.42 114.261 141.078 112.948 141.512C110.621 142.282 107.977 142.919 103.683 143.796C103.015 143.932 102.322 143.983 101.641 143.95C99.2855 143.834 97.0376 143.714 94.8957 143.587Z" fill="#8BD046"/>
<path id="Vector_2" d="M78.5301 102.468L78.297 102.817C78.2176 102.936 78.1752 103.076 78.1752 103.22C78.1752 103.783 78.79 104.131 79.2732 103.841L80.0684 103.364C80.4449 103.138 80.6752 102.731 80.6752 102.292V100.276C80.6752 99.4559 80.365 98.6659 79.8068 98.0648L76.5574 94.5654C75.7072 93.6498 74.1752 94.2514 74.1752 95.5009V97.8482C74.1752 98.6685 73.078 98.9428 72.692 98.219L72.2092 97.3137C71.8642 96.6668 70.8791 97.0194 71.0229 97.7383C71.1017 98.1324 70.8003 98.5 70.3984 98.5H69.4376C68.9613 98.5 68.5165 98.738 68.2523 99.1343L66.6509 101.537C66.0109 102.496 65.625 103.603 65.5292 104.753L65.4754 105.399C65.2824 107.714 65.9672 110.018 67.394 111.853C68.2376 112.937 69.312 113.821 70.5392 114.438L72.0183 115.183C77.3395 117.862 83.7085 117.363 88.5473 113.888L91.1752 112C96.2048 106.327 97.0558 102.086 96.6752 93.5C99.8935 99.9903 100.867 104.134 100.175 113C96.5392 117.326 94.1077 119.757 89.4491 123.101C88.6078 123.705 87.6983 124.215 86.7426 124.614C80.3868 127.268 76.8937 127.711 71.85 126.541C71.7351 126.514 71.624 126.468 71.5236 126.407L61.9041 120.487C61.6101 120.306 61.8426 119.857 62.16 119.993C62.1701 119.998 62.175 120 62.1856 120.003C62.5184 120.1 70.7564 122.49 74.6752 122C78.6752 121.5 85.6228 120.577 87.1752 119C87.1752 119 79.1752 120 75.1752 120C73.0839 120 69.4891 118.36 66.5346 116.795C63.3266 115.095 61.0283 112.131 59.8408 108.701L57.1752 101C55.5326 102.561 54.9902 103.594 54.1752 105.5C53.6559 102.925 53.734 100.188 54.6752 92.5C50.5515 96.8806 48.6237 100.06 50.7337 106.971C51.7548 110.315 51.9052 113.839 52.0015 117.335C52.0859 120.397 53.2877 122.689 55.9892 125.178C57.3727 126.453 59.0941 127.287 60.8898 127.848L66.1752 129.5C63.4483 130.113 61.8218 130.066 58.6752 129C60.1329 130.832 61.0672 132.077 62.4059 133.93C62.7283 134.377 62.4087 135 61.8581 135C61.3349 135 61.0189 135.564 61.3451 135.973C64.6548 140.121 72.3707 141.784 87.1752 142.5C91.1975 142.717 102.675 144 100.675 144.5C99.4317 144.811 95.6751 144.349 93.0114 143.954C91.1322 143.676 88.0959 144.108 86.2141 143.848C84.0312 143.548 83.0373 142.954 80.8356 142.866L73.861 142.587C72.4106 142.529 70.9705 142.285 69.6024 141.8C67.012 140.881 65.0194 139.993 62.631 138.882C60.6795 137.973 58.9331 136.675 57.4932 135.075L51.2243 128.11C50.8748 127.722 50.3769 127.5 49.8544 127.5C49.1356 127.5 48.4823 127.082 48.1811 126.429L46.5944 122.992C45.9934 121.689 45.765 120.246 45.9345 118.822L47.837 102.841C48.0604 100.964 48.6403 99.1474 49.5455 97.4879L53.0267 91.1057C53.7249 89.8257 55.1125 89.0781 56.5655 89.1992L57.4416 89.2722C58.9586 89.3986 60.2967 88.2852 60.4482 86.7705C60.5803 85.4497 61.6249 84.405 62.9457 84.273L65.5939 84.0081C65.6465 84.0029 65.6957 83.9796 65.7331 83.9422C65.884 83.7913 65.7602 83.5354 65.5477 83.5551C56.6653 84.3781 53.9757 86.5191 51.2167 92.7336C50.8481 93.564 50.3445 94.3307 49.702 94.9732L45.6752 99C46.8125 94.9607 48.4384 91.933 52.6752 85.5C48.3378 88.0932 46.1653 89.9828 42.6752 94C45.1709 89.4028 47.0464 86.8747 51.6752 82.5C55.8818 79.1982 59.149 78.2221 66.4002 78.8734C67.2412 78.9489 68.0927 78.8807 68.9047 78.6487C70.3721 78.2295 71.9626 78.3022 73.2509 79.1203C75.6368 80.6356 78.0078 82.8738 81.0356 85.5613C82.1178 86.5219 83.0895 87.6069 83.8666 88.8274C85.9462 92.0936 87.1428 94.472 88.5963 98.2919C88.6442 98.4177 88.6141 98.5612 88.5189 98.6563C88.3515 98.8238 88.0682 98.7738 87.9656 98.5604C86.3288 95.1562 85.0884 93.2768 82.1752 90.5L84.0111 98.7613C84.6874 101.805 83.115 104.901 80.2587 106.151L78.3433 106.989C77.6105 107.31 76.7678 107.256 76.0819 106.844C75.2295 106.333 74.7666 105.36 74.9072 104.376L75.629 99.3236C75.6593 99.1113 75.7427 98.9101 75.8713 98.7385C76.4557 97.9594 77.6623 98.0959 78.0578 98.9858L78.7029 100.437C78.997 101.099 78.9318 101.865 78.5301 102.468Z" fill="#3D7E2F"/>
<path id="Vector 15" d="M100.675 95L104.675 103L105.675 100C106.079 101.086 106.229 101.726 106.175 103C106.583 105.365 107.507 102.74 109.13 98.1299L109.175 98C109.634 99.8404 109.669 100.802 109.675 102.5C111.117 100.416 111.627 98.9547 111.675 95.5C110.909 91.25 110.396 89.7094 109.175 90L108.175 93.5C106.219 88.5016 105.665 85.2743 104.682 79.5404L104.675 79.5C103.099 75.481 101.886 74.0096 99.6752 71.5C94.6835 69.5749 93.039 68.295 90.1752 66C92.1836 68.8764 93.0892 70.3219 94.1752 72.5C94.1752 72.5 95.6752 72.5 96.6752 73C97.6752 73.5 101.675 83 99.6752 82C97.6752 81 96.1012 75.1586 93.6752 74C98.2241 85.5312 100.531 88.6844 100.675 95Z" fill="#3A7F31"/>
<path id="Vector 16" d="M99.6752 92C97.0791 87.3579 95.4159 84.8915 91.6752 81C93.0248 84.3791 95.0038 86.6492 95.1752 89.5C96.8966 88.7702 97.2369 89.5335 99.6752 92Z" fill="#3B802E"/>
<path id="Vector 17" d="M117.002 108.605C114.486 117.232 111.575 121.184 105.684 127C105.389 127.292 104.928 127.335 104.583 127.105C104.117 126.794 104.059 126.13 104.459 125.738C110.014 120.288 112.823 116.356 115.339 108.13C115.51 107.573 116.169 107.329 116.654 107.652C116.965 107.86 117.106 108.247 117.002 108.605Z" fill="#3D7E2F"/>
<path id="Vector 18" d="M77.1752 144L55.1752 139.5C60.7453 146.773 67.5877 148.014 78.6752 151C76.9055 152.8 74.0198 152.704 69.6752 153C80.7888 156.341 86.0447 156.827 93.1752 154.5C88.2774 153.798 85.8565 153.275 86.1752 150.5C94.2786 149.04 98.9915 148.267 102.175 145.5C94.0121 140.371 88.1688 140.746 77.1752 144Z" fill="#5BBE43"/>
<path id="Vector 19" d="M67.1752 83.5C56.0655 83.7074 52.0337 87.0717 48.1752 98L54.6752 89.5C54.6752 89.5 57.6752 90.5 59.6752 89C61.6752 87.5 61.1752 85.5 61.1752 85.5L67.1752 83.5Z" fill="#5CBF45"/>
<g id="Vector 20">
<path d="M76.6752 53.5C77.6752 54 89.6752 54 96.1752 62.5C100.675 51.5 77.6752 45 76.1752 46C74.6752 47 75.1752 49 75.1752 49C75.1752 49 64.1752 46.5 63.1752 48.5C62.1752 50.5 63.6752 51.5 63.6752 51.5C63.6752 51.5 62.1752 52.5 62.6752 53C63.1752 53.5 71.2894 55.1683 76.6752 54.5C76.6752 54.5 75.6752 53 76.6752 53.5Z" fill="#63C447"/>
<path d="M76.6752 53.5C77.6752 54 89.6752 54 96.1752 62.5C100.675 51.5 77.6752 45 76.1752 46C74.6752 47 75.1752 49 75.1752 49C75.1752 49 64.1752 46.5 63.1752 48.5C62.1752 50.5 63.6752 51.5 63.6752 51.5C63.6752 51.5 62.1752 52.5 62.6752 53C63.1752 53.5 71.2894 55.1683 76.6752 54.5C76.6752 54.5 75.6752 53 76.6752 53.5Z" fill="url(#paint5_linear_106_584)"/>
</g>
<g id="Vector 21" filter="url(#filter10_f_106_584)">
<path d="M84.3467 96.3075C85.2307 105.597 79.416 108.78 75.7587 107.487C74.8863 107.179 73.7479 107.355 73.3341 108.182C72.9794 108.892 73.3167 109.729 74.095 109.882C76.0567 110.266 79.9007 110.546 84.6752 108.5C89.6332 106.375 87.9882 99.5922 85.9535 95.5617C85.2221 94.113 84.1929 94.692 84.3467 96.3075Z" fill="#71C341"/>
</g>
<path id="Vector 22" d="M72.6752 85.5C76.6752 87.5 76.6752 89 76.1752 89.5" stroke="#5CBF45"/>
<path id="Vector 24" d="M64.5952 104.23L64.98 104.326C65.3886 104.428 65.6752 104.795 65.6752 105.217C65.6752 105.963 66.519 106.397 67.1265 105.963L67.9677 105.363C68.63 104.889 68.7732 103.964 68.2849 103.313L68.1675 103.156C67.8576 102.743 67.3713 102.5 66.8548 102.5H64.8081C64.4302 102.5 64.0946 102.742 63.9751 103.1C63.8133 103.586 64.0989 104.106 64.5952 104.23Z" fill="#5DC246"/>
<path id="Vector 23" d="M71.6752 108.5L71.1752 113.5C66.2703 112.959 65.6752 108 66.1752 106.5C66.6752 105 69.0282 104.531 70.6752 105C69.2647 105.797 68.4813 106.341 67.1752 108.5C67.9411 110.055 68.4195 110.747 69.6752 110.5V107.5C69.6752 107.5 72.6752 105 72.6752 103C72.6752 101 70.6752 100.5 70.6752 100.5L71.1752 96.5C73.2998 98.6768 74.1207 100.264 75.1752 103.5L71.6752 108.5Z" fill="#C0DE7F"/>
<path id="Vector 25" d="M68.6809 90.502L75.2564 92.8504C75.3569 92.8863 75.4317 92.7682 75.3526 92.6965C74.5125 91.9343 72.1827 90 70.1752 90C67.7789 90 68.5983 90.4594 68.6704 90.4975C68.6739 90.4994 68.6771 90.5007 68.6809 90.502Z" fill="#72BE56"/>
<path id="Vector 26" d="M57.1752 96C58.3752 93.2 61.0086 92.1667 62.1752 92" stroke="#5BA541"/>
<path id="Vector 27" d="M69.1752 57.5C58.8841 59.7722 54.3513 62.2284 46.6752 67L51.6752 61.5L43.6752 62C52.335 57.6457 58.1927 56.86 69.1752 57.5Z" fill="#B8DB76"/>
<path id="Vector 28" d="M72.1752 56.5C75.7752 57.3 77.6752 59.5 78.1752 60.5" stroke="#77C548"/>
<path id="Vector 30" d="M39.6752 72.5C28.2892 90.1821 24.6954 100.853 26.1752 122.5C21.7217 107.891 21.9811 99.7589 32.6462 80.594C29.6179 90.4338 24.3215 94.6111 24.6752 107C26.1377 93.3857 30.3118 85.8605 39.6752 72.5Z" fill="#BBDB79"/>
<ellipse id="Ellipse 1" cx="40.1752" cy="137" rx="2" ry="1.5" fill="white"/>
<g id="Vector 33" filter="url(#filter11_f_106_584)">
<path d="M26.1752 90.5C20.7887 100.401 18.6614 106.19 16.6752 117C15.3666 111.335 14.8882 108.091 15.1752 102V95.5C17.0163 90.7097 17.7292 87.5923 22.6752 87C23.9371 81.3606 25.6305 77.8793 29.1752 71.5C33.4981 65.5817 35.9056 63.121 40.1752 60C33.3845 68.1297 30.6305 72.1862 27.6752 78.5L31.1752 75.5C27.021 81.7642 24.9837 86.292 21.6752 95.5L26.1752 90.5Z" fill="#61B940"/>
</g>
<g id="Vector 35">
<path d="M52.6752 54L33.6752 59C33.6752 59 37.6752 53 43.1752 52C48.6752 51 52.6752 54 52.6752 54Z" fill="#7BC543"/>
<path d="M45.6752 48.5C41.6752 48 40.1752 46 40.1752 46C40.1752 46 44.6752 44.5 49.6752 44.5C54.6752 44.5 56.6752 48.5 56.6752 48.5C56.6752 48.5 49.6752 49 45.6752 48.5Z" fill="#7BC543"/>
<path d="M53.6752 50.5C52.6752 50 47.1752 50 47.1752 50L47.6752 50.5C48.6752 51.5 53.1752 51.5 53.1752 51.5C53.1752 51.5 54.6752 51 53.6752 50.5Z" fill="#7BC543"/>
</g>
<g id="Vector 45" filter="url(#filter12_f_106_584)">
<path d="M114.175 72.5L104.175 52.5M120.175 69.5L111.175 57.5" stroke="#70B248"/>
</g>
<path id="Vector 46" d="M118.175 76C117.175 75.5 117.175 75 116.675 75.5C116.175 76 117.175 93.5 117.675 94.5C118.175 95.5 118.675 94.5 119.175 94C119.675 93.5 119.175 76.5 118.175 76Z" fill="#8BD046"/>
<path id="Vector 48" d="M74.1752 68.5C79.2924 71.4416 81.9129 73.535 86.1752 78" stroke="#D1E59F"/>
<ellipse id="Ellipse 89" cx="105.175" cy="159.887" rx="0.884542" ry="0.770535" transform="rotate(114.19 105.175 159.887)" fill="white" fill-opacity="0.6"/>
</g>
<defs>
<filter id="filter0_f_106_584" x="8.67523" y="0.5" width="160" height="161.5" filterUnits="userSpaceOnUse" color-interpolation-filters="sRGB">
<feFlood flood-opacity="0" result="BackgroundImageFix"/>
<feBlend mode="normal" in="SourceGraphic" in2="BackgroundImageFix" result="shape"/>
<feGaussianBlur stdDeviation="12" result="effect1_foregroundBlur_106_584"/>
</filter>
<filter id="filter1_f_106_584" x="65.5782" y="109.311" width="90.097" height="71.1166" filterUnits="userSpaceOnUse" color-interpolation-filters="sRGB">
<feFlood flood-opacity="0" result="BackgroundImageFix"/>
<feBlend mode="normal" in="SourceGraphic" in2="BackgroundImageFix" result="shape"/>
<feGaussianBlur stdDeviation="1" result="effect1_foregroundBlur_106_584"/>
</filter>
<filter id="filter2_f_106_584" x="64.1752" y="21" width="82.5" height="75.5" filterUnits="userSpaceOnUse" color-interpolation-filters="sRGB">
<feFlood flood-opacity="0" result="BackgroundImageFix"/>
<feBlend mode="normal" in="SourceGraphic" in2="BackgroundImageFix" result="shape"/>
<feGaussianBlur stdDeviation="12" result="effect1_foregroundBlur_106_584"/>
</filter>
<filter id="filter3_f_106_584" x="42.3128" y="13.2292" width="111.797" height="153.172" filterUnits="userSpaceOnUse" color-interpolation-filters="sRGB">
<feFlood flood-opacity="0" result="BackgroundImageFix"/>
<feBlend mode="normal" in="SourceGraphic" in2="BackgroundImageFix" result="shape"/>
<feGaussianBlur stdDeviation="2" result="effect1_foregroundBlur_106_584"/>
</filter>
<filter id="filter4_f_106_584" x="19.3217" y="121.737" width="106.316" height="57.7172" filterUnits="userSpaceOnUse" color-interpolation-filters="sRGB">
<feFlood flood-opacity="0" result="BackgroundImageFix"/>
<feBlend mode="normal" in="SourceGraphic" in2="BackgroundImageFix" result="shape"/>
<feGaussianBlur stdDeviation="1.5" result="effect1_foregroundBlur_106_584"/>
</filter>
<filter id="filter5_f_106_584" x="8.72943" y="40.5705" width="59.6489" height="83.0075" filterUnits="userSpaceOnUse" color-interpolation-filters="sRGB">
<feFlood flood-opacity="0" result="BackgroundImageFix"/>
<feBlend mode="normal" in="SourceGraphic" in2="BackgroundImageFix" result="shape"/>
<feGaussianBlur stdDeviation="1" result="effect1_foregroundBlur_106_584"/>
</filter>
<filter id="filter6_f_106_584" x="64.043" y="98.5" width="73.1322" height="75.5" filterUnits="userSpaceOnUse" color-interpolation-filters="sRGB">
<feFlood flood-opacity="0" result="BackgroundImageFix"/>
<feBlend mode="normal" in="SourceGraphic" in2="BackgroundImageFix" result="shape"/>
<feGaussianBlur stdDeviation="2" result="effect1_foregroundBlur_106_584"/>
</filter>
<filter id="filter7_f_106_584" x="18.6752" y="53.5" width="22.5" height="25.5" filterUnits="userSpaceOnUse" color-interpolation-filters="sRGB">
<feFlood flood-opacity="0" result="BackgroundImageFix"/>
<feBlend mode="normal" in="SourceGraphic" in2="BackgroundImageFix" result="shape"/>
<feGaussianBlur stdDeviation="1.5" result="effect1_foregroundBlur_106_584"/>
</filter>
<filter id="filter8_f_106_584" x="0.7146" y="79.6465" width="15.8142" height="32.6016" filterUnits="userSpaceOnUse" color-interpolation-filters="sRGB">
<feFlood flood-opacity="0" result="BackgroundImageFix"/>
<feBlend mode="normal" in="SourceGraphic" in2="BackgroundImageFix" result="shape"/>
<feGaussianBlur stdDeviation="0.75" result="effect1_foregroundBlur_106_584"/>
</filter>
<filter id="filter9_f_106_584" x="4.17557" y="88.4501" width="8.98502" height="35.7204" filterUnits="userSpaceOnUse" color-interpolation-filters="sRGB">
<feFlood flood-opacity="0" result="BackgroundImageFix"/>
<feBlend mode="normal" in="SourceGraphic" in2="BackgroundImageFix" result="shape"/>
<feGaussianBlur stdDeviation="1" result="effect1_foregroundBlur_106_584"/>
</filter>
<filter id="filter10_f_106_584" x="71.1932" y="92.733" width="18.7452" height="19.4201" filterUnits="userSpaceOnUse" color-interpolation-filters="sRGB">
<feFlood flood-opacity="0" result="BackgroundImageFix"/>
<feBlend mode="normal" in="SourceGraphic" in2="BackgroundImageFix" result="shape"/>
<feGaussianBlur stdDeviation="1" result="effect1_foregroundBlur_106_584"/>
</filter>
<filter id="filter11_f_106_584" x="12.0949" y="57" width="31.0803" height="63" filterUnits="userSpaceOnUse" color-interpolation-filters="sRGB">
<feFlood flood-opacity="0" result="BackgroundImageFix"/>
<feBlend mode="normal" in="SourceGraphic" in2="BackgroundImageFix" result="shape"/>
<feGaussianBlur stdDeviation="1.5" result="effect1_foregroundBlur_106_584"/>
</filter>
<filter id="filter12_f_106_584" x="101.728" y="50.2764" width="20.8472" height="24.4472" filterUnits="userSpaceOnUse" color-interpolation-filters="sRGB">
<feFlood flood-opacity="0" result="BackgroundImageFix"/>
<feBlend mode="normal" in="SourceGraphic" in2="BackgroundImageFix" result="shape"/>
<feGaussianBlur stdDeviation="1" result="effect1_foregroundBlur_106_584"/>
</filter>
<linearGradient id="paint0_linear_106_584" x1="162.675" y1="130.5" x2="50.1752" y2="28.5" gradientUnits="userSpaceOnUse">
<stop stop-color="#BBD782"/>
<stop offset="1" stop-color="#8FCF47"/>
</linearGradient>
<linearGradient id="paint1_linear_106_584" x1="90.1752" y1="171" x2="155.175" y2="129.5" gradientUnits="userSpaceOnUse">
<stop stop-color="#75C548"/>
<stop offset="1" stop-color="#C9E44E"/>
</linearGradient>
<linearGradient id="paint2_linear_106_584" x1="78.1752" y1="17.5" x2="141.175" y2="111" gradientUnits="userSpaceOnUse">
<stop offset="0.0136226" stop-color="#8ACC46"/>
<stop offset="1" stop-color="#C9E44E"/>
</linearGradient>
<radialGradient id="paint3_radial_106_584" cx="0" cy="0" r="1" gradientUnits="userSpaceOnUse" gradientTransform="translate(38.6752 82) rotate(90) scale(39.5 27.5)">
<stop offset="0.447917" stop-color="#30A201"/>
<stop offset="1" stop-color="#B7D974"/>
</radialGradient>
<linearGradient id="paint4_linear_106_584" x1="95.1752" y1="156.5" x2="131.675" y2="119" gradientUnits="userSpaceOnUse">
<stop stop-color="#A3D84A"/>
<stop offset="1" stop-color="#6AC64C"/>
</linearGradient>
<linearGradient id="paint5_linear_106_584" x1="77.6752" y1="47.5" x2="97.1752" y2="59.5" gradientUnits="userSpaceOnUse">
<stop stop-color="#63C447"/>
<stop offset="1" stop-color="#8BD046"/>
</linearGradient>
</defs>
</svg>
